<svg viewBox="0 0 24 24" fill="currentColor" xmlns="http://www.w3.org/2000/svg" aria-hidden="true">
  <path d="M12 .297C5.373.297 0 5.67 0 12.297c0 5.302 3.438 9.8 8.205 11.387.6.11.82-.258.82-.577v-2.18C6.26 20.44 5.6 19.32 5.6 19.32c-.546-1.392-1.334-1.762-1.334-1.762-1.085-.744.084-.73.084-.73 1.202.085 1.835 1.237 1.835 1.237 1.067 1.833 2.8 1.304 3.486.996.107-.774.419-1.305.762-1.605-2.665-.303-5.467-1.335-5.467-5.932 0-1.31.468-2.381 1.235-3.221-.124-.303-.535-1.523.117-3.172 0 0 1.007-.322 3.3 1.23.957-.265 1.983-.397 3.004-.403 1.02.006 2.046.138 3.004.403 2.291-1.552 3.298-1.23 3.298-1.23.653 1.65.242 2.87.118 3.173.77.84 1.235 1.91 1.235 3.221 0 4.608-2.803 5.625-5.474 5.922.43.371.823 1.102.823 2.222v3.293c0 .32.218.694.824.576C20.564 22.095 24 17.598 24 12.297 24 5.67 18.627.297 12 .297z"/>
</svg>